<?xml version="1.0" encoding="UTF-8"?>
<svg width="64" height="64" viewBox="0 0 64 64" xmlns="http://www.w3.org/2000/svg" role="img" aria-label="Solstice Logo">
  <defs>
    <linearGradient id="g" x1="0%" y1="0%" x2="100%" y2="0%">
      <stop offset="0%" stop-color="#45a29e"/>
      <stop offset="100%" stop-color="#66fcf1"/>
    </linearGradient>
  </defs>
  <rect x="1" y="1" width="62" height="62" rx="16" ry="16" fill="#0b0c10" stroke="#66fcf1" stroke-opacity="0.4"/>
  <path d="M46 22c0-2.761-3.582-5-8-5H26c-4.418 0-8 2.239-8 5s3.582 5 8 5h12c4.418 0 8 2.239 8 5s-3.582 5-8 5H26c-4.418 0-8 2.239-8 5s3.582 5 8 5h12c4.418 0 8-2.239 8-5" fill="url(#g)"/>
</svg>
